<svg xmlns="http://www.w3.org/2000/svg" xmlns:xlink="http://www.w3.org/1999/xlink" width="1498pt" height="875pt" viewBox="0.00 0.00 1497.99 874.60">
<g id="graph0" class="graph" transform="scale(1 1) rotate(0) translate(4 870.6)">
<title>FoodDeliverySystemUML</title>
<polygon fill="black" stroke="none" points="-4,4 -4,-870.6 1493.99,-870.6 1493.99,4 -4,4"/>
<!-- TomatoApp -->
<g id="node1" class="node">
<title>TomatoApp</title>
<polygon fill="#eceff1" stroke="red" points="682.17,-739.3 682.17,-775.3 765.83,-775.3 765.83,-739.3 682.17,-739.3"/>
<text text-anchor="middle" x="724" y="-753.1" font-family="Inter" font-size="14.00">TomatoApp</text>
</g>
<!-- User -->
<g id="node5" class="node">
<title>User</title>
<polygon fill="#c8e6c9" stroke="green" points="595,-291.5 595,-327.5 649,-327.5 649,-291.5 595,-291.5"/>
<text text-anchor="middle" x="621.72" y="-305.3" font-family="Inter" font-size="14.00">User</text>
</g>
<!-- TomatoApp&#45;&gt;User -->
<g id="edge17" class="edge">
<title>TomatoApp-&gt;User</title>
<path fill="none" stroke="lightgray" d="M715.95,-738.86C703.39,-710.94 679.21,-654.22 666,-603.8 641.07,-508.61 628.84,-392.08 624.24,-339.13"/>
<polygon fill="lightgray" stroke="lightgray" points="623.41,-329.17 628.73,-338.76 623.72,-332.93 624.24,-339.13 624.24,-339.13 624.24,-339.13 623.72,-332.93 619.76,-339.51 623.41,-329.17"/>
<text text-anchor="middle" x="677.42" y="-513.7" font-family="Inter" font-size="10.00" fill="lightgray">interacts with</text>
</g>
<!-- RestaurantManager -->
<g id="node10" class="node">
<title>RestaurantManager</title>
<polygon fill="#b2ebf2" stroke="turquoise" points="932.19,-498.7 932.19,-534.7 1057.81,-534.7 1057.81,-498.7 932.19,-498.7"/>
<text text-anchor="middle" x="995" y="-512.5" font-family="Inter" font-size="14.00">RestaurantManager</text>
</g>
<!-- TomatoApp&#45;&gt;RestaurantManager -->
<g id="edge15" class="edge">
<title>TomatoApp-&gt;RestaurantManager</title>
<path fill="none" stroke="lightgray" d="M766.16,-749.46C833.86,-735.82 963.72,-698 1008,-603.8 1016.63,-585.45 1012.64,-562.68 1006.9,-545.17"/>
<polygon fill="lightgray" stroke="lightgray" points="1003.6,-536.18 1011.27,-544.02 1004.9,-539.73 1007.04,-545.57 1007.04,-545.57 1007.04,-545.57 1004.9,-539.73 1002.81,-547.12 1003.6,-536.18"/>
<text text-anchor="middle" x="1004.65" y="-664.9" font-family="Inter" font-size="10.00" fill="lightgray">uses</text>
</g>
<!-- OrderManager -->
<g id="node11" class="node">
<title>OrderManager</title>
<polygon fill="#b2ebf2" stroke="turquoise" points="674.8,-560.5 674.8,-596.5 773.2,-596.5 773.2,-560.5 674.8,-560.5"/>
<text text-anchor="middle" x="724" y="-574.3" font-family="Inter" font-size="14.00">OrderManager</text>
</g>
<!-- TomatoApp&#45;&gt;OrderManager -->
<g id="edge16" class="edge">
<title>TomatoApp-&gt;OrderManager</title>
<path fill="none" stroke="lightgray" d="M724,-739.03C724,-708.53 724,-644.87 724,-607.85"/>
<polygon fill="lightgray" stroke="lightgray" points="724,-598.06 728.5,-608.06 724,-601.84 724,-608.06 724,-608.06 724,-608.06 724,-601.84 719.5,-608.06 724,-598.06"/>
<text text-anchor="middle" x="732.61" y="-664.9" font-family="Inter" font-size="10.00" fill="lightgray">uses</text>
</g>
<!-- PaymentStrategy -->
<g id="node12" class="node">
<title>PaymentStrategy</title>
<polygon fill="#e1bee7" stroke="violet" points="1072.18,-291.5 1072.18,-327.5 1183.82,-327.5 1183.82,-291.5 1072.18,-291.5"/>
<text text-anchor="middle" x="1128" y="-305.3" font-family="Inter" font-size="14.00">PaymentStrategy</text>
</g>
<!-- TomatoApp&#45;&gt;PaymentStrategy -->
<g id="edge19" class="edge">
<title>TomatoApp-&gt;PaymentStrategy</title>
<path fill="none" stroke="lightgray" d="M766.2,-754.08C836.81,-749.74 975.26,-738.33 1017,-714 1130.54,-647.83 1155.49,-604.55 1198,-480.2 1211.26,-441.43 1212.71,-426.24 1198,-388 1190.03,-367.3 1173.7,-348.68 1158.8,-334.89"/>
<polygon fill="lightgray" stroke="lightgray" points="1151.66,-328.55 1162.12,-331.82 1154.48,-331.06 1159.14,-335.18 1159.14,-335.18 1159.14,-335.18 1154.48,-331.06 1156.15,-338.55 1151.66,-328.55"/>
<text text-anchor="middle" x="1199.88" y="-513.7" font-family="Inter" font-size="10.00" fill="lightgray">uses</text>
</g>
<!-- OrderFactory -->
<g id="node15" class="node">
<title>OrderFactory</title>
<polygon fill="#ffccbc" stroke="chocolate" points="315.29,-560.5 315.29,-596.5 406.71,-596.5 406.71,-560.5 315.29,-560.5"/>
<text text-anchor="middle" x="361" y="-574.3" font-family="Inter" font-size="14.00">OrderFactory</text>
</g>
<!-- TomatoApp&#45;&gt;OrderFactory -->
<g id="edge18" class="edge">
<title>TomatoApp-&gt;OrderFactory</title>
<path fill="none" stroke="lightgray" d="M681.81,-756.3C643.45,-754.13 587.41,-745.23 550.78,-714 516.95,-685.16 546.59,-649.72 512,-621.8 478.22,-594.54 457.46,-616.66 416,-603.8 413.2,-602.93 410.35,-601.96 407.5,-600.92"/>
<polygon fill="lightgray" stroke="lightgray" points="398.37,-597.36 409.32,-596.8 401.89,-598.73 407.68,-600.99 407.68,-600.99 407.68,-600.99 401.89,-598.73 406.05,-605.19 398.37,-597.36"/>
<text text-anchor="middle" x="559.39" y="-664.9" font-family="Inter" font-size="10.00" fill="lightgray">uses</text>
</g>
<!-- NotificationService -->
<g id="node18" class="node">
<title>NotificationService</title>
<polygon fill="#cfd8dc" stroke="slategray" points="790.72,-553.7 790.72,-603.3 999.28,-603.3 999.28,-553.7 790.72,-553.7"/>
<text text-anchor="middle" x="895" y="-586.7" font-family="Inter" font-size="14.00">NotificationService</text>
<polyline fill="none" stroke="slategray" points="790.72,-578.5 999.28,-578.5"/>
<text text-anchor="start" x="798.72" y="-561.9" font-family="Inter" font-size="14.00">+notify(order: Order*): static void</text>
</g>
<!-- TomatoApp&#45;&gt;NotificationService -->
<g id="edge20" class="edge">
<title>TomatoApp-&gt;NotificationService</title>
<path fill="none" stroke="lightgray" d="M740.71,-739.03C769.34,-709.42 828.21,-648.56 864.38,-611.16"/>
<polygon fill="lightgray" stroke="lightgray" points="870.89,-604.43 867.17,-614.75 868.26,-607.15 863.93,-611.62 863.93,-611.62 863.93,-611.62 868.26,-607.15 860.7,-608.49 870.89,-604.43"/>
<text text-anchor="middle" x="862.29" y="-664.9" font-family="Inter" font-size="10.00" fill="lightgray">uses</text>
</g>
<!-- TimeUtils -->
<g id="node19" class="node">
<title>TimeUtils</title>
<polygon fill="#cfd8dc" stroke="slategray" points="424.52,-553.7 424.52,-603.3 619.48,-603.3 619.48,-553.7 424.52,-553.7"/>
<text text-anchor="middle" x="522" y="-586.7" font-family="Inter" font-size="14.00">TimeUtils</text>
<polyline fill="none" stroke="slategray" points="424.52,-578.5 619.48,-578.5"/>
<text text-anchor="start" x="432.52" y="-561.9" font-family="Inter" font-size="14.00">+getCurrentTime(): static string</text>
</g>
<!-- TomatoApp&#45;&gt;TimeUtils -->
<g id="edge21" class="edge">
<title>TomatoApp-&gt;TimeUtils</title>
<path fill="none" stroke="lightgray" d="M681.69,-747.68C659.83,-741.42 634.01,-730.98 615.78,-714 582.59,-683.08 599.67,-657.75 572,-621.8 569.19,-618.15 566.02,-614.6 562.67,-611.2"/>
<polygon fill="lightgray" stroke="lightgray" points="555.51,-604.43 565.86,-608.03 558.25,-607.02 562.77,-611.3 562.77,-611.3 562.77,-611.3 558.25,-607.02 559.68,-614.57 555.51,-604.43"/>
<text text-anchor="middle" x="624.39" y="-664.9" font-family="Inter" font-size="10.00" fill="lightgray">uses</text>
</g>
<!-- Main -->
<g id="node2" class="node">
<title>Main</title>
<ellipse fill="#b3e5fc" stroke="deepskyblue" cx="724" cy="-848.6" rx="99.16" ry="18"/>
<text text-anchor="middle" x="724" y="-844.4" font-family="Inter" font-size="14.00">{main() (Entry Point)}</text>
</g>
<!-- Main&#45;&gt;TomatoApp -->
<g id="edge30" class="edge">
<title>Main-&gt;TomatoApp</title>
<path fill="none" stroke="lightgray" d="M724,-830.38C724,-817.98 724,-800.98 724,-786.6"/>
<polygon fill="lightgray" stroke="lightgray" points="724,-776.99 728.5,-786.99 724,-780.77 724,-786.99 724,-786.99 724,-786.99 724,-780.77 719.5,-786.99 724,-776.99"/>
<text text-anchor="middle" x="752.88" y="-803.6" font-family="Inter" font-size="10.00" fill="lightgray">creates &amp; uses</text>
</g>
<!-- Main&#45;&gt;User -->
<g id="edge31" class="edge">
<title>Main-&gt;User</title>
<path fill="none" stroke="lightgray" d="M625.98,-845.49C428.19,-839.91 0,-820.63 0,-758.3 0,-758.3 0,-758.3 0,-433.1 0,-313.45 448.62,-308.6 583.87,-309.86"/>
<polygon fill="lightgray" stroke="lightgray" points="593.66,-309.97 583.61,-314.36 589.87,-309.93 583.66,-309.86 583.66,-309.86 583.66,-309.86 589.87,-309.93 583.71,-305.36 593.66,-309.97"/>
<text text-anchor="middle" x="37.9" y="-575.5" font-family="Inter" font-size="10.00" fill="lightgray">creates (simulated)</text>
</g>
<!-- UpiPaymentStrategy -->
<g id="node14" class="node">
<title>UpiPaymentStrategy</title>
<polygon fill="#e1bee7" stroke="violet" points="1232.01,-622.3 1232.01,-713.5 1489.99,-713.5 1489.99,-622.3 1232.01,-622.3"/>
<text text-anchor="middle" x="1361" y="-696.9" font-family="Inter" font-size="14.00">UpiPaymentStrategy</text>
<polyline fill="none" stroke="violet" points="1232.01,-688.7 1489.99,-688.7"/>
<text text-anchor="start" x="1240.01" y="-672.1" font-family="Inter" font-size="14.00">-mobile: string</text>
<polyline fill="none" stroke="violet" points="1232.01,-663.9 1489.99,-663.9"/>
<text text-anchor="start" x="1240.01" y="-647.3" font-family="Inter" font-size="14.00">+UpiPaymentStrategy(mob: const string&amp;)</text>
<text text-anchor="start" x="1240.01" y="-630.5" font-family="Inter" font-size="14.00">+pay(amount: double): void (override)</text>
</g>
<!-- Main&#45;&gt;UpiPaymentStrategy -->
<g id="edge32" class="edge">
<title>Main-&gt;UpiPaymentStrategy</title>
<path fill="none" stroke="lightgray" d="M781.8,-833.63C873.84,-811.1 1059.48,-764.43 1220.92,-716.12"/>
<polygon fill="lightgray" stroke="lightgray" points="1230.35,-713.28 1222.07,-720.47 1226.73,-714.37 1220.77,-716.16 1220.77,-716.16 1220.77,-716.16 1226.73,-714.37 1219.48,-711.85 1230.35,-713.28"/>
<text text-anchor="middle" x="947.81" y="-803.6" font-family="Inter" font-size="10.00" fill="lightgray">creates (simulated)</text>
</g>
<!-- MenuItem -->
<g id="node3" class="node">
<title>MenuItem</title>
<polygon fill="#fff9c4" stroke="orange" points="637.84,-0.5 637.84,-36.5 712.16,-36.5 712.16,-0.5 637.84,-0.5"/>
<text text-anchor="middle" x="675" y="-14.3" font-family="Inter" font-size="14.00">MenuItem</text>
</g>
<!-- Restaurant -->
<g id="node4" class="node">
<title>Restaurant</title>
<polygon fill="#fff9c4" stroke="orange" points="683.07,-97.5 683.07,-133.5 758.93,-133.5 758.93,-97.5 683.07,-97.5"/>
<text text-anchor="middle" x="721" y="-111.3" font-family="Inter" font-size="14.00">Restaurant</text>
</g>
<!-- Restaurant&#45;&gt;MenuItem -->
<g id="edge8" class="edge">
<title>Restaurant-&gt;MenuItem</title>
<path fill="none" stroke="lightgray" d="M691.7,-97.3C685.55,-92.22 679.87,-86.1 676.35,-79 671.95,-70.13 670.65,-59.56 670.75,-49.81"/>
<polygon fill="lightgray" stroke="lightgray" points="670.76,-49.7 667.18,-43.44 671.59,-37.73 675.16,-43.99 670.76,-49.7"/>
<text text-anchor="middle" x="724.67" y="-70" font-family="Inter" font-size="10.00" fill="lightgray">has many (composition)</text>
<text text-anchor="middle" x="724.67" y="-58" font-family="Inter" font-size="10.00" fill="lightgray">1..*</text>
<text text-anchor="middle" x="669.15" y="-39.83" font-family="Inter" font-size="10.00" fill="lightgray">*</text>
<text text-anchor="middle" x="689.2" y="-88.3" font-family="Inter" font-size="10.00" fill="lightgray">1</text>
</g>
<!-- Cart -->
<g id="node6" class="node">
<title>Cart</title>
<polygon fill="#c8e6c9" stroke="lightgreen" points="595,-194.5 595,-230.5 649,-230.5 649,-194.5 595,-194.5"/>
<text text-anchor="middle" x="621.55" y="-208.3" font-family="Inter" font-size="14.00">Cart</text>
</g>
<!-- User&#45;&gt;Cart -->
<g id="edge7" class="edge">
<title>User-&gt;Cart</title>
<path fill="none" stroke="lightgray" d="M622,-291.08C622,-277.82 622,-259.25 622,-243.6"/>
<polygon fill="lightgray" stroke="lightgray" points="622,-243.72 618,-237.72 622,-231.72 626,-237.72 622,-243.72"/>
<text text-anchor="middle" x="661.44" y="-264" font-family="Inter" font-size="10.00" fill="lightgray">has a (composition)</text>
<text text-anchor="middle" x="661.44" y="-252" font-family="Inter" font-size="10.00" fill="lightgray">1..1</text>
<text text-anchor="middle" x="619.5" y="-233.81" font-family="Inter" font-size="10.00" fill="lightgray">1</text>
<text text-anchor="middle" x="619.5" y="-282.08" font-family="Inter" font-size="10.00" fill="lightgray">1</text>
</g>
<!-- Cart&#45;&gt;MenuItem -->
<g id="edge10" class="edge">
<title>Cart-&gt;MenuItem</title>
<path fill="none" stroke="lightgray" d="M617.22,-194.28C611.73,-171.39 604.82,-130.01 615.96,-97 622.54,-77.49 636.22,-59.01 648.75,-44.99"/>
<polygon fill="lightgray" stroke="lightgray" points="655.5,-37.76 651.96,-48.14 652.92,-40.53 648.67,-45.07 648.67,-45.07 648.67,-45.07 652.92,-40.53 645.38,-42 655.5,-37.76"/>
<text text-anchor="middle" x="644.98" y="-118.5" font-family="Inter" font-size="10.00" fill="lightgray">contains many</text>
<text text-anchor="middle" x="644.98" y="-106.5" font-family="Inter" font-size="10.00" fill="lightgray">0..*</text>
<text text-anchor="middle" x="653.83" y="-39.87" font-family="Inter" font-size="10.00" fill="lightgray">*</text>
<text text-anchor="middle" x="614.72" y="-185.28" font-family="Inter" font-size="10.00" fill="lightgray">1</text>
</g>
<!-- Cart&#45;&gt;Restaurant -->
<g id="edge9" class="edge">
<title>Cart-&gt;Restaurant</title>
<path fill="none" stroke="lightgray" d="M623.77,-194.24C625.93,-181.24 630.7,-163.71 641.22,-152 646.16,-146.51 658.88,-140.06 672.75,-134.18"/>
<polygon fill="lightgray" stroke="lightgray" points="681.83,-130.47 674.27,-138.42 678.33,-131.9 672.57,-134.25 672.57,-134.25 672.57,-134.25 678.33,-131.9 670.87,-130.08 681.83,-130.47"/>
<text text-anchor="middle" x="679.11" y="-167" font-family="Inter" font-size="10.00" fill="lightgray">references selected</text>
<text text-anchor="middle" x="679.11" y="-155" font-family="Inter" font-size="10.00" fill="lightgray">0..1</text>
<text text-anchor="middle" x="675.46" y="-133.01" font-family="Inter" font-size="10.00" fill="lightgray">0..1</text>
<text text-anchor="middle" x="621.27" y="-185.24" font-family="Inter" font-size="10.00" fill="lightgray">1</text>
</g>
<!-- Order -->
<g id="node7" class="node">
<title>Order</title>
<polygon fill="#bbdefb" stroke="deepskyblue" points="700,-416.1 700,-452.1 754,-452.1 754,-416.1 700,-416.1"/>
<text text-anchor="middle" x="726.82" y="-429.9" font-family="Inter" font-size="14.00">Order</text>
</g>
<!-- Order&#45;&gt;MenuItem -->
<g id="edge13" class="edge">
<title>Order-&gt;MenuItem</title>
<path fill="none" stroke="lightgray" d="M736.66,-415.67C767.11,-358.1 854.45,-171.13 773,-55 761.99,-39.31 743.32,-30.52 725.2,-25.62"/>
<polygon fill="lightgray" stroke="lightgray" points="725.12,-25.6 718.39,-28.17 713.42,-22.94 720.16,-20.37 725.12,-25.6"/>
<text text-anchor="middle" x="835.16" y="-215.5" font-family="Inter" font-size="10.00" fill="lightgray">contains many</text>
<text text-anchor="middle" x="835.16" y="-203.5" font-family="Inter" font-size="10.00" fill="lightgray">1..*</text>
<text text-anchor="middle" x="715.04" y="-25.74" font-family="Inter" font-size="10.00" fill="lightgray">*</text>
<text text-anchor="middle" x="734.16" y="-406.67" font-family="Inter" font-size="10.00" fill="lightgray">1</text>
</g>
<!-- Order&#45;&gt;Restaurant -->
<g id="edge12" class="edge">
<title>Order-&gt;Restaurant</title>
<path fill="none" stroke="lightgray" d="M726.67,-415.63C725.68,-363.52 722.75,-208.85 721.54,-144.78"/>
<polygon fill="lightgray" stroke="lightgray" points="721.35,-135.14 726.04,-145.05 721.42,-138.92 721.54,-145.14 721.54,-145.14 721.54,-145.14 721.42,-138.92 717.04,-145.22 721.35,-135.14"/>
<text text-anchor="middle" x="729.76" y="-264" font-family="Inter" font-size="10.00" fill="lightgray">for</text>
<text text-anchor="middle" x="729.76" y="-252" font-family="Inter" font-size="10.00" fill="lightgray">1</text>
<text text-anchor="middle" x="718.83" y="-136.92" font-family="Inter" font-size="10.00" fill="lightgray">1</text>
<text text-anchor="middle" x="724.17" y="-406.63" font-family="Inter" font-size="10.00" fill="lightgray">*</text>
</g>
<!-- Order&#45;&gt;User -->
<g id="edge11" class="edge">
<title>Order-&gt;User</title>
<path fill="none" stroke="lightgray" d="M703.66,-415.77C688.76,-403.95 669.68,-387.35 655.63,-370 647.65,-360.15 640.47,-348.15 634.82,-337.52"/>
<polygon fill="lightgray" stroke="lightgray" points="630.44,-328.95 639,-335.81 632.16,-332.32 634.99,-337.85 634.99,-337.85 634.99,-337.85 632.16,-332.32 630.98,-339.9 630.44,-328.95"/>
<text text-anchor="middle" x="686.31" y="-361" font-family="Inter" font-size="10.00" fill="lightgray">associated with</text>
<text text-anchor="middle" x="686.31" y="-349" font-family="Inter" font-size="10.00" fill="lightgray">1</text>
<text text-anchor="middle" x="627.39" y="-330.86" font-family="Inter" font-size="10.00" fill="lightgray">1</text>
<text text-anchor="middle" x="701.16" y="-406.77" font-family="Inter" font-size="10.00" fill="lightgray">*</text>
</g>
<!-- Order&#45;&gt;PaymentStrategy -->
<g id="edge14" class="edge">
<title>Order-&gt;PaymentStrategy</title>
<path fill="none" stroke="lightgray" d="M754.25,-424.77C816.67,-405.69 971.52,-358.34 1061.1,-330.95"/>
<polygon fill="lightgray" stroke="lightgray" points="1070.52,-328.07 1062.27,-335.3 1066.91,-329.18 1060.96,-331 1060.96,-331 1060.96,-331 1066.91,-329.18 1059.64,-326.69 1070.52,-328.07"/>
<text text-anchor="middle" x="1018.12" y="-361" font-family="Inter" font-size="10.00" fill="lightgray">uses</text>
<text text-anchor="middle" x="1018.12" y="-349" font-family="Inter" font-size="10.00" fill="lightgray">1</text>
<text text-anchor="middle" x="1069.19" y="-330.72" font-family="Inter" font-size="10.00" fill="lightgray">1</text>
<text text-anchor="middle" x="756.75" y="-427.77" font-family="Inter" font-size="10.00" fill="lightgray">*</text>
</g>
<!-- DeliveryOrder -->
<g id="node8" class="node">
<title>DeliveryOrder</title>
<polygon fill="#bbdefb" stroke="deepskyblue" points="94.19,-560.5 94.19,-596.5 191.81,-596.5 191.81,-560.5 94.19,-560.5"/>
<text text-anchor="middle" x="143" y="-574.3" font-family="Inter" font-size="14.00">DeliveryOrder</text>
</g>
<!-- DeliveryOrder&#45;&gt;Order -->
<g id="edge1" class="edge">
<title>DeliveryOrder-&gt;Order</title>
<path fill="none" stroke="lightgray" d="M178.68,-560.03C217.03,-541.94 280.21,-514.16 337.45,-498.2 463.16,-463.16 617.46,-445.33 688.21,-438.5"/>
<polygon fill="none" stroke="lightgray" points="688.5,-441.99 698.13,-437.56 687.84,-435.02 688.5,-441.99"/>
<text text-anchor="middle" x="352.73" y="-513.7" font-family="Inter" font-size="10.00" fill="lightgray">extends</text>
</g>
<!-- PickupOrder -->
<g id="node9" class="node">
<title>PickupOrder</title>
<polygon fill="#bbdefb" stroke="deepskyblue" points="210.23,-560.5 210.23,-596.5 297.77,-596.5 297.77,-560.5 210.23,-560.5"/>
<text text-anchor="middle" x="254" y="-574.3" font-family="Inter" font-size="14.00">PickupOrder</text>
</g>
<!-- PickupOrder&#45;&gt;Order -->
<g id="edge2" class="edge">
<title>PickupOrder-&gt;Order</title>
<path fill="none" stroke="lightgray" d="M289.19,-560.11C294.75,-557.64 300.49,-555.25 306,-553.2 315.24,-549.77 586.72,-474.13 688.75,-445.74"/>
<polygon fill="none" stroke="lightgray" points="689.61,-449.13 698.3,-443.08 687.73,-442.39 689.61,-449.13"/>
<text text-anchor="middle" x="511.15" y="-513.7" font-family="Inter" font-size="10.00" fill="lightgray">extends</text>
</g>
<!-- RestaurantManager&#45;&gt;Restaurant -->
<g id="edge23" class="edge">
<title>RestaurantManager-&gt;Restaurant</title>
<path fill="none" stroke="lightgray" d="M931.91,-508.77C913.34,-503.67 894.63,-494.97 882,-480.2 798.37,-382.47 908.35,-302.33 839,-194 822.88,-168.81 795.31,-150.02 770.88,-137.26"/>
<polygon fill="lightgray" stroke="lightgray" points="770.76,-137.2 763.61,-138.13 760,-131.88 767.16,-130.96 770.76,-137.2"/>
<text text-anchor="middle" x="880.05" y="-312.5" font-family="Inter" font-size="10.00" fill="lightgray">manages</text>
<text text-anchor="middle" x="880.05" y="-300.5" font-family="Inter" font-size="10.00" fill="lightgray">0..*</text>
<text text-anchor="middle" x="761.7" y="-134.48" font-family="Inter" font-size="10.00" fill="lightgray">*</text>
<text text-anchor="middle" x="929.41" y="-511.77" font-family="Inter" font-size="10.00" fill="lightgray">1</text>
</g>
<!-- OrderManager&#45;&gt;Order -->
<g id="edge22" class="edge">
<title>OrderManager-&gt;Order</title>
<path fill="none" stroke="lightgray" d="M724.37,-560.04C724.87,-536.42 725.76,-493.95 726.37,-465.16"/>
<polygon fill="lightgray" stroke="lightgray" points="726.37,-465.16 722.49,-459.07 726.62,-453.16 730.49,-459.24 726.37,-465.16"/>
<text text-anchor="middle" x="743.08" y="-519.7" font-family="Inter" font-size="10.00" fill="lightgray">manages</text>
<text text-anchor="middle" x="743.08" y="-507.7" font-family="Inter" font-size="10.00" fill="lightgray">0..*</text>
<text text-anchor="middle" x="724.14" y="-455.26" font-family="Inter" font-size="10.00" fill="lightgray">*</text>
<text text-anchor="middle" x="721.87" y="-551.04" font-family="Inter" font-size="10.00" fill="lightgray">1</text>
</g>
<!-- CreditCardPaymentStrategy -->
<g id="node13" class="node">
<title>CreditCardPaymentStrategy</title>
<polygon fill="#e1bee7" stroke="violet" points="890.81,-388.5 890.81,-479.7 1189.19,-479.7 1189.19,-388.5 890.81,-388.5"/>
<text text-anchor="middle" x="1040" y="-463.1" font-family="Inter" font-size="14.00">CreditCardPaymentStrategy</text>
<polyline fill="none" stroke="violet" points="890.81,-454.9 1189.19,-454.9"/>
<text text-anchor="start" x="898.81" y="-438.3" font-family="Inter" font-size="14.00">-cardNumber: string</text>
<polyline fill="none" stroke="violet" points="890.81,-430.1 1189.19,-430.1"/>
<text text-anchor="start" x="898.81" y="-413.5" font-family="Inter" font-size="14.00">+CreditCardPaymentStrategy(card: const string&amp;)</text>
<text text-anchor="start" x="898.81" y="-396.7" font-family="Inter" font-size="14.00">+pay(amount: double): void (override)</text>
</g>
<!-- CreditCardPaymentStrategy&#45;&gt;PaymentStrategy -->
<g id="edge3" class="edge">
<title>CreditCardPaymentStrategy-&gt;PaymentStrategy</title>
<path fill="none" stroke="lightgray" stroke-dasharray="5,2" d="M1072.27,-388.14C1084.58,-370.99 1098.22,-351.99 1108.92,-337.08"/>
<polygon fill="none" stroke="lightgray" points="1111.61,-339.33 1114.6,-329.17 1105.93,-335.25 1111.61,-339.33"/>
<text text-anchor="middle" x="1125.33" y="-355" font-family="Inter" font-size="10.00" fill="lightgray">implements</text>
</g>
<!-- UpiPaymentStrategy&#45;&gt;PaymentStrategy -->
<g id="edge4" class="edge">
<title>UpiPaymentStrategy-&gt;PaymentStrategy</title>
<path fill="none" stroke="lightgray" stroke-dasharray="5,2" d="M1354.79,-621.97C1342.95,-553.15 1310.82,-421.69 1231,-346 1220.87,-336.4 1208.03,-329.38 1194.88,-324.26"/>
<polygon fill="none" stroke="lightgray" points="1196.33,-321.06 1185.73,-321.04 1194.01,-327.66 1196.33,-321.06"/>
<text text-anchor="middle" x="1358.04" y="-513.7" font-family="Inter" font-size="10.00" fill="lightgray">implements</text>
</g>
<!-- NowOrderFactory -->
<g id="node16" class="node">
<title>NowOrderFactory</title>
<polygon fill="#ffccbc" stroke="chocolate" points="316.68,-739.3 316.68,-775.3 435.32,-775.3 435.32,-739.3 316.68,-739.3"/>
<text text-anchor="middle" x="376" y="-756.2" font-family="Inter" font-size="14.00">NowOrderFactory</text>
<polyline fill="none" stroke="chocolate" points="316.68,-745.5 435.32,-745.5"/>
</g>
<!-- NowOrderFactory&#45;&gt;DeliveryOrder -->
<g id="edge24" class="edge">
<title>NowOrderFactory-&gt;DeliveryOrder</title>
<path fill="none" stroke="lightgray" d="M327.08,-738.93C315.46,-732.7 304.16,-724.52 296.25,-714 271.1,-680.54 306.2,-651.79 277,-621.8 252.79,-596.93 234.01,-614.54 201,-603.8 198.22,-602.9 195.4,-601.92 192.56,-600.89"/>
<polygon fill="lightgray" stroke="lightgray" points="183.44,-597.41 194.38,-596.77 186.97,-598.76 192.78,-600.97 192.78,-600.97 192.78,-600.97 186.97,-598.76 191.18,-605.18 183.44,-597.41"/>
<text text-anchor="middle" x="310.12" y="-664.9" font-family="Inter" font-size="10.00" fill="lightgray">creates</text>
</g>
<!-- NowOrderFactory&#45;&gt;PickupOrder -->
<g id="edge25" class="edge">
<title>NowOrderFactory-&gt;PickupOrder</title>
<path fill="none" stroke="lightgray" d="M362.04,-739.08C356.7,-731.74 350.99,-722.83 347.25,-714 330.89,-675.47 352.62,-655.66 328,-621.8 323.91,-616.17 312.84,-608.97 300.47,-602.11"/>
<polygon fill="lightgray" stroke="lightgray" points="291.93,-597.54 302.87,-598.29 295.26,-599.33 300.74,-602.26 300.74,-602.26 300.74,-602.26 295.26,-599.33 298.62,-606.23 291.93,-597.54"/>
<text text-anchor="middle" x="361.12" y="-664.9" font-family="Inter" font-size="10.00" fill="lightgray">creates</text>
</g>
<!-- NowOrderFactory&#45;&gt;OrderFactory -->
<g id="edge5" class="edge">
<title>NowOrderFactory-&gt;OrderFactory</title>
<path fill="none" stroke="lightgray" d="M378.8,-739.1C382.45,-713.31 387.45,-663.22 379,-621.8 378.01,-616.96 376.45,-611.99 374.65,-607.23"/>
<polygon fill="none" stroke="lightgray" points="377.9,-605.92 370.77,-598.08 371.45,-608.65 377.9,-605.92"/>
<text text-anchor="middle" x="398.9" y="-664.9" font-family="Inter" font-size="10.00" fill="lightgray">extends</text>
</g>
<!-- NowOrderFactory&#45;&gt;TimeUtils -->
<g id="edge26" class="edge">
<title>NowOrderFactory-&gt;TimeUtils</title>
<path fill="none" stroke="lightgray" d="M394.08,-739.07C401.68,-731.57 410.49,-722.56 418,-714 447.2,-680.71 477.9,-640.24 498.31,-612.44"/>
<polygon fill="lightgray" stroke="lightgray" points="504.1,-604.51 501.83,-615.24 501.87,-607.57 498.2,-612.59 498.2,-612.59 498.2,-612.59 501.87,-607.57 494.57,-609.93 504.1,-604.51"/>
<text text-anchor="middle" x="499.64" y="-664.9" font-family="Inter" font-size="10.00" fill="lightgray">uses</text>
</g>
<!-- ScheduledOrderFactory -->
<g id="node17" class="node">
<title>ScheduledOrderFactory</title>
<polygon fill="#ffccbc" stroke="chocolate" points="119.13,-732.5 119.13,-782.1 268.87,-782.1 268.87,-732.5 119.13,-732.5"/>
<text text-anchor="middle" x="194" y="-765.5" font-family="Inter" font-size="14.00">ScheduledOrderFactory</text>
<polyline fill="none" stroke="chocolate" points="119.13,-757.3 268.87,-757.3"/>
<text text-anchor="start" x="127.13" y="-740.7" font-family="Inter" font-size="14.00">-scheduleTime: string</text>
<polyline fill="none" stroke="chocolate" points="119.13,-732.5 268.87,-732.5"/>
</g>
<!-- ScheduledOrderFactory&#45;&gt;DeliveryOrder -->
<g id="edge27" class="edge">
<title>ScheduledOrderFactory-&gt;DeliveryOrder</title>
<path fill="none" stroke="lightgray" d="M157.7,-732.18C152.26,-726.87 147.42,-720.78 144.25,-714 128.33,-679.98 131.92,-635.62 136.79,-607.34"/>
<polygon fill="lightgray" stroke="lightgray" points="138.6,-597.83 141.15,-608.49 137.89,-601.54 136.73,-607.65 136.73,-607.65 136.73,-607.65 137.89,-601.54 132.31,-606.81 138.6,-597.83"/>
<text text-anchor="middle" x="158.12" y="-664.9" font-family="Inter" font-size="10.00" fill="lightgray">creates</text>
</g>
<!-- ScheduledOrderFactory&#45;&gt;PickupOrder -->
<g id="edge28" class="edge">
<title>ScheduledOrderFactory-&gt;PickupOrder</title>
<path fill="none" stroke="lightgray" d="M188.04,-732.4C182.36,-704.23 177.09,-656.84 195.25,-621.8 198.86,-614.82 204.22,-608.72 210.25,-603.5"/>
<polygon fill="lightgray" stroke="lightgray" points="217.83,-597.65 212.66,-607.32 214.84,-599.96 209.91,-603.76 209.91,-603.76 209.91,-603.76 214.84,-599.96 207.17,-600.2 217.83,-597.65"/>
<text text-anchor="middle" x="209.12" y="-664.9" font-family="Inter" font-size="10.00" fill="lightgray">creates</text>
</g>
<!-- ScheduledOrderFactory&#45;&gt;OrderFactory -->
<g id="edge6" class="edge">
<title>ScheduledOrderFactory-&gt;OrderFactory</title>
<path fill="none" stroke="lightgray" d="M212.71,-732.11C216.52,-726.4 220.21,-720.16 223,-714 240.44,-675.48 217.16,-652.29 246.45,-621.8 265.9,-601.56 280.69,-613.58 307,-603.8 309.18,-602.99 311.4,-602.13 313.64,-601.24"/>
<polygon fill="none" stroke="lightgray" points="314.8,-604.55 322.69,-597.48 312.11,-598.08 314.8,-604.55"/>
<text text-anchor="middle" x="261.73" y="-664.9" font-family="Inter" font-size="10.00" fill="lightgray">extends</text>
</g>
<!-- NotificationService&#45;&gt;Order -->
<g id="edge29" class="edge">
<title>NotificationService-&gt;Order</title>
<path fill="none" stroke="lightgray" d="M866.5,-553.34C835.52,-527.09 786.32,-485.38 755.39,-459.16"/>
<polygon fill="lightgray" stroke="lightgray" points="748.11,-452.99 758.65,-456.02 750.99,-455.44 755.74,-459.46 755.74,-459.46 755.74,-459.46 750.99,-455.44 752.83,-462.89 748.11,-452.99"/>
<text text-anchor="middle" x="868.02" y="-513.7" font-family="Inter" font-size="10.00" fill="lightgray">notifies about</text>
</g>
</g>
</svg>